<svg width="198" height="255" viewBox="0 0 198 255" fill="none" xmlns="http://www.w3.org/2000/svg">
<path d="M10.9006 71.2646C6.86411 68.9853 6.82682 63.1848 10.8336 60.8538L103.723 6.81495C107.551 4.58837 112.389 7.13267 112.723 11.5479L121.151 122.799C121.514 127.582 116.395 130.835 112.218 128.477L10.9006 71.2646Z" fill="#FFC2C2"/>
<path d="M173 61.5C173 91.0472 151.51 131 125 131C98.4903 131 77 83.0472 77 53.5C77 23.9528 101.5 -0.5 127 1.5C153.5 -0.500004 173 31.9528 173 61.5Z" fill="#FFC2C2"/>
<path d="M198 61.5C198 91.0472 176.51 131 150 131C123.49 131 97 83.0472 97 53.5C97 23.9528 101.99 0.5 128.5 0.5C155.01 0.5 198 31.9528 198 61.5Z" fill="#FFC2C2"/>
<rect x="114" y="117" width="22" height="135" fill="white" stroke="#FFC2C2" stroke-width="4"/>
<path d="M9 115V70L112 127V168L9 115Z" fill="#F6EAA5"/>
<path d="M9 175V130L112 187V228L9 175Z" fill="#F6EAA5"/>
<path d="M9 146V106L112 160V194L9 146Z" fill="white"/>
<path d="M30 132C11.6 117.6 10.3333 134.667 12 145L57 168C55.6667 162 48.4 146.4 30 132Z" fill="#F5A8A8" stroke="#ED7979"/>
<path d="M93 161.5C83.5 158 70.5 170.5 73 177L111 193C110 187.667 105.494 166.103 93 161.5Z" fill="#F5A8A8" stroke="#ED7979"/>
<path d="M9 207V167L112 221V255L9 207Z" fill="white"/>
<path d="M30 193C11.6 178.6 10.3333 195.667 12 206L57 229C55.6667 223 48.4 207.4 30 193Z" fill="#F5A8A8" stroke="#ED7979"/>
<path d="M93 222.5C83.5 219 70.5 231.5 73 238L111 254C110 248.667 105.494 227.103 93 222.5Z" fill="#F5A8A8" stroke="#ED7979"/>
<path d="M198 242.81V68L173 102.962V250.801C185.941 257.194 195.059 248.137 198 242.81Z" fill="#FFC2C2"/>
<path d="M137 126.105C149 135.444 166 125.259 173 119L179.5 253L137 254V126.105Z" fill="#FFC2C2"/>
<rect x="112" y="119" width="4" height="135" fill="white"/>
<rect x="116" y="249" width="18" height="5" fill="white"/>
<path d="M111.5 126.5C118.5 123.167 133.8 118.7 135 129.5" stroke="#FFC2C2"/>
<rect x="107.497" y="113" width="35.0863" height="8.69966" transform="rotate(3.27294 107.497 113)" fill="#FFC2C2"/>
<path d="M127.433 120.577L137.722 120.702L135.189 127.339L127.433 120.577Z" fill="#FFC2C2"/>
<path d="M112 121L123.382 122.443L112 126.493L112 121Z" fill="#FFC2C2"/>
<path d="M155 18C147.8 -3.2 129 5.16666 120.5 12C108.5 22.4 93.5 52.5 97.5 63.5C113.5 88 150.75 79.5 159.5 65.5C162 61.5 162.2 39.2 155 18Z" fill="#F54444"/>
<ellipse cx="123.5" cy="30.5" rx="1.5" ry="4.5" transform="rotate(26.5651 123.5 30.5)" fill="#FDEE8C"/>
<ellipse cx="136.5" cy="28.5" rx="1.5" ry="4.5" transform="rotate(23.6294 136.5 28.5)" fill="#FDEE8C"/>
<ellipse cx="143.5" cy="49.5" rx="1.5" ry="4.5" fill="#FDEE8C"/>
<ellipse cx="111.5" cy="48.5" rx="1.5" ry="4.5" transform="rotate(24.7751 111.5 48.5)" fill="#FDEE8C"/>
<ellipse cx="127.5" cy="49.5" rx="1.5" ry="4.5" transform="rotate(35.4069 127.5 49.5)" fill="#FDEE8C"/>
<ellipse cx="116.83" cy="65.5368" rx="1.5" ry="4.5" transform="rotate(35.4069 116.83 65.5368)" fill="#FDEE8C"/>
<ellipse cx="134.83" cy="64.5368" rx="1.5" ry="4.5" transform="rotate(35.4069 134.83 64.5368)" fill="#FDEE8C"/>
</svg>
