<svg width="2147" height="3276" viewBox="0 0 2147 3276" fill="none" xmlns="http://www.w3.org/2000/svg">
<path d="M1736.14 229.584C1726.89 190.168 1678.65 175.259 1648.77 202.584L1214.22 600.033C1183.99 627.674 1195.21 677.687 1234.34 689.779L1803.44 865.656C1842.57 877.749 1880.04 842.783 1870.68 802.91L1736.14 229.584Z" fill="#260909"/>
<path d="M438.493 201.729C449.426 162.745 498.263 149.921 526.939 178.502L944.04 594.234C973.048 623.146 959.699 672.631 920.086 683.034L343.962 834.327C304.349 844.729 268.409 808.187 279.469 768.753L438.493 201.729Z" fill="#260909"/>
<rect width="431.974" height="1202" rx="215.987" transform="matrix(-0.999917 -0.0128792 -0.0128792 0.999917 1597.97 2070.6)" fill="#260909"/>
<rect width="431.974" height="1202" rx="215.987" transform="matrix(-0.999917 -0.0128792 -0.0128792 0.999917 955.45 2058.16)" fill="#260909"/>
<rect width="1077" height="1070" rx="118" transform="matrix(-0.999855 -0.0170363 -0.0170363 0.999855 1611.62 1349.24)" fill="#260909"/>
<rect x="441.729" y="1193.28" width="387" height="1202" rx="193.5" transform="rotate(21.5234 441.729 1193.28)" fill="#260909"/>
<rect width="387" height="1202" rx="193.5" transform="matrix(-0.942227 0.334976 0.334976 0.942227 1702.05 1214.76)" fill="#260909"/>
<rect width="739.932" height="980.622" rx="118" transform="matrix(-0.999855 -0.0170363 -0.0170363 0.999855 1435.84 1378.53)" fill="#D9D9D9"/>
<path d="M438.564 2255.34C432.556 2279.29 421.746 2301.78 406.752 2321.53C391.758 2341.29 372.874 2357.92 351.178 2370.47C329.482 2383.03 305.398 2391.26 280.303 2394.7C255.207 2398.15 229.59 2396.73 204.916 2390.54C180.241 2384.35 156.991 2373.5 136.494 2358.62C115.997 2343.74 98.654 2325.11 85.455 2303.8C72.2561 2282.49 63.4597 2258.91 59.5682 2234.42C55.6768 2209.93 56.7664 2185 62.7748 2161.05L250.669 2208.2L438.564 2255.34Z" fill="#D9D9D9"/>
<path d="M1674.91 2291.88C1680.5 2319.04 1692.21 2344.6 1709.21 2366.71C1726.21 2388.83 1748.08 2406.95 1773.24 2419.78C1798.4 2432.61 1826.23 2439.83 1854.74 2440.93C1883.25 2442.02 1911.73 2436.96 1938.14 2426.11C1964.55 2415.26 1988.23 2398.88 2007.49 2378.16C2026.75 2357.44 2041.1 2332.88 2049.53 2306.25C2057.95 2279.62 2060.23 2251.58 2056.22 2224.13C2052.2 2196.68 2041.97 2170.51 2026.28 2147.5L1969.32 2184.62C1979.48 2199.52 1986.1 2216.47 1988.71 2234.25C1991.31 2252.02 1989.83 2270.18 1984.38 2287.43C1978.92 2304.67 1969.62 2320.58 1957.15 2334C1944.68 2347.41 1929.35 2358.02 1912.24 2365.05C1895.14 2372.07 1876.7 2375.35 1858.24 2374.64C1839.77 2373.93 1821.75 2369.26 1805.45 2360.95C1789.16 2352.64 1775 2340.9 1763.99 2326.58C1752.98 2312.26 1745.4 2295.71 1741.78 2278.12L1674.91 2291.88Z" fill="#D9D9D9"/>
<path d="M945.644 3075.13C945.859 3101.02 940.501 3126.71 929.877 3150.72C919.252 3174.74 903.569 3196.61 883.722 3215.08C863.876 3233.56 840.255 3248.28 814.208 3258.41C788.161 3268.53 760.198 3273.87 731.915 3274.1C703.633 3274.34 675.586 3269.47 649.374 3259.77C623.163 3250.08 599.3 3235.75 579.15 3217.61C558.999 3199.47 542.955 3177.86 531.934 3154.03C520.912 3130.19 515.128 3104.6 514.914 3078.7L730.279 3076.91L945.644 3075.13Z" fill="#D9D9D9"/>
<path d="M1585.33 3076.69C1585.54 3101.99 1580.11 3127.1 1569.34 3150.57C1558.58 3174.04 1542.69 3195.41 1522.6 3213.47C1502.5 3231.53 1478.58 3245.93 1452.21 3255.83C1425.83 3265.73 1397.52 3270.95 1368.89 3271.19C1340.25 3271.43 1311.86 3266.68 1285.33 3257.22C1258.79 3247.75 1234.64 3233.76 1214.24 3216.03C1193.85 3198.31 1177.61 3177.2 1166.46 3153.91C1155.31 3130.62 1149.46 3105.61 1149.25 3080.31L1367.29 3078.5L1585.33 3076.69Z" fill="#D9D9D9"/>
<ellipse cx="793.224" cy="185.149" rx="101.5" ry="128" transform="rotate(1.22973 793.224 185.149)" fill="#D9D9D9"/>
<ellipse cx="1456.43" cy="134.496" rx="25.2587" ry="11.5153" transform="rotate(48.136 1456.43 134.496)" fill="#D9D9D9"/>
<ellipse cx="824.908" cy="108.278" rx="53.2453" ry="53.5868" transform="rotate(1.22973 824.908 108.278)" fill="#D9D9D9"/>
<ellipse cx="133" cy="136" rx="133" ry="136" transform="matrix(-0.99977 -0.0214611 -0.0214611 0.99977 1481.83 64.7263)" fill="#D9D9D9"/>
<rect x="711.686" y="249.582" width="96.3416" height="196.593" transform="rotate(-16.2005 711.686 249.582)" fill="#D9D9D9"/>
<rect x="1366.99" y="231.032" width="96.3416" height="196.593" transform="rotate(19.6472 1366.99 231.032)" fill="#D9D9D9"/>
<ellipse cx="822" cy="496" rx="822" ry="496" transform="matrix(-0.999855 -0.0170363 -0.0170363 0.999855 1902.02 448.072)" fill="#260909"/>
<rect x="784.606" y="67.9952" width="617" height="400.301" rx="25" transform="rotate(1.22973 784.606 67.9952)" fill="#D9D9D9"/>
<ellipse cx="1033.21" cy="84.1029" rx="111.101" ry="56" transform="rotate(1.22973 1033.21 84.1029)" fill="#D9D9D9"/>
<ellipse cx="1154.29" cy="86.702" rx="112.009" ry="56" transform="rotate(1.22973 1154.29 86.702)" fill="#D9D9D9"/>
<rect width="173.639" height="443.301" rx="62" transform="matrix(-0.999917 -0.0128792 -0.0128792 0.999917 1161 514.76)" fill="#D9D9D9"/>
<rect x="987.035" y="479" width="207" height="76.6473" transform="rotate(11.3125 987.035 479)" fill="#260909"/>
<line x1="250.249" y1="957.502" x2="1899.28" y2="973.895" stroke="#D9D9D9" stroke-width="24"/>
<path d="M1886.53 968.62C1883.59 1078.68 1791.4 1310.08 1446.13 1355.26" stroke="#D9D9D9" stroke-width="27"/>
<ellipse cx="1221.62" cy="989.855" rx="168" ry="124.5" transform="rotate(1.22973 1221.62 989.855)" fill="#D9D9D9"/>
<ellipse cx="915.669" cy="984.288" rx="168" ry="124.5" transform="rotate(1.22973 915.669 984.288)" fill="#D9D9D9"/>
<circle cx="893.153" cy="984.805" r="23.5" transform="rotate(1.22973 893.153 984.805)" fill="#260909"/>
<ellipse cx="1044.75" cy="982.057" rx="24" ry="26.5" transform="rotate(1.22973 1044.75 982.057)" fill="#260909"/>
<ellipse cx="1084.74" cy="982.916" rx="24" ry="26.5" transform="rotate(1.22973 1084.74 982.916)" fill="#260909"/>
<path d="M1065.41 1045.51L1024.21 997.008L1105.61 996.174L1065.41 1045.51Z" fill="#260909"/>
<ellipse cx="859.312" cy="794.194" rx="33" ry="61.5" transform="rotate(1.22973 859.312 794.194)" fill="#A8D080"/>
<ellipse cx="1300.31" cy="801.194" rx="33" ry="61.5" transform="rotate(1.22973 1300.31 801.194)" fill="#A8D080"/>
<path d="M1002.99 1449.73C1003.19 1430.91 1018.27 1422.82 1037.02 1421.26C1090.33 1416.81 1136.12 1441.71 1099.06 1531.47C1044.19 1664.33 1099.89 1725.54 1047.99 1720.42C996.088 1715.31 991.344 1610.18 999.317 1518.33C1002.11 1486.17 1002.84 1464.27 1002.99 1449.73Z" fill="#95BB6F" stroke="#95BB6F" stroke-width="11"/>
<path d="M1097.19 42.511C1041.04 17.9669 980.493 25.6876 937.795 57.7787C901.288 81.0005 870.578 68.6091 842.817 55.7399C817.609 44.0542 649.133 57.5837 703.114 226.781M703.114 226.781C762.33 416.366 780.665 467.438 783.754 478.84L703.114 226.781Z" stroke="#92968F" stroke-width="11"/>
<path d="M1090.31 38.418C1090 52.6121 1183.36 3.0272 1248.7 64.8279C1284.13 86.3371 1328.65 66.5442 1328.65 66.5442C1397.33 68.0185 1521.18 95.2956 1465.3 245.972M1465.3 245.972C1402.6 415.035 1379.59 480.135 1375.93 491.552L1465.3 245.972Z" stroke="#92968F" stroke-width="11"/>
<path d="M811.645 93.35C789.257 138.45 777.108 261.617 907.614 393.479" stroke="#92968F" stroke-width="11"/>
<path d="M901.884 101.288C897.192 164.536 903.13 304.162 964.417 356.689" stroke="#92968F" stroke-width="11"/>
<path d="M1359.3 105.106C1379.73 151.125 1386.58 274.7 1250.54 400.84" stroke="#92968F" stroke-width="11"/>
<path d="M1268.8 109.165C1270.77 172.555 1258.85 311.798 1195.36 361.647" stroke="#92968F" stroke-width="11"/>
<path d="M759.704 434.314C935.869 396.112 1280.05 407.499 1383.56 447.705" stroke="#92968F" stroke-width="11"/>
<path d="M782.912 472.821L1375.77 485.547" stroke="#92968F" stroke-width="11"/>
</svg>
